<svg width="113" height="41" viewBox="0 0 113 41" fill="none" xmlns="http://www.w3.org/2000/svg">
<g clip-path="url(#clip0_755_6018)">
<path d="M25.9205 1.60464L21.9146 0.550781L18.5389 12.9204L15.4912 1.75302L11.4852 2.80688L14.7781 14.8724L6.57632 6.81976L3.64381 9.69895L12.6401 18.5317L1.43665 15.5844L0.363281 19.5174L12.6045 22.7378C12.4643 22.1443 12.3902 21.5259 12.3902 20.8904C12.3902 16.3928 16.1037 12.7469 20.6846 12.7469C25.2655 12.7469 28.979 16.3928 28.979 20.8904C28.979 21.5217 28.9058 22.1364 28.7673 22.7264L39.8923 25.653L40.9656 21.7201L28.6758 18.4869L39.88 15.5393L38.8066 11.6063L26.5172 14.8393L34.7189 6.7867L31.7864 3.90751L22.9149 12.6178L25.9205 1.60464Z" fill="#B5B3B2"/>
<path d="M28.7548 22.7712C28.4114 24.1968 27.6863 25.4775 26.6914 26.5036L34.7509 34.4167L37.6835 31.5375L28.7548 22.7712Z" fill="#B5B3B2"/>
<path d="M26.6086 26.5869C25.6017 27.5966 24.3293 28.3501 22.9023 28.7384L25.8351 39.4844L29.8409 38.4305L26.6086 26.5869Z" fill="#B5B3B2"/>
<path d="M22.75 28.7782C22.088 28.9453 21.394 29.0341 20.6789 29.0341C19.9128 29.0341 19.1709 28.9321 18.4666 28.7412L15.5312 39.497L19.5371 40.5508L22.75 28.7782Z" fill="#B5B3B2"/>
<path d="M18.3301 28.7009C16.9249 28.2933 15.6751 27.5302 14.6888 26.5176L6.60938 34.4501L9.54188 37.3293L18.3301 28.7009Z" fill="#B5B3B2"/>
<path d="M14.6222 26.4469C13.6528 25.4279 12.9466 24.1643 12.6105 22.7607L1.44922 25.697L2.52258 29.63L14.6222 26.4469Z" fill="#B5B3B2"/>
</g>
<path d="M51.1575 28.5V11.7798H54.1873V25.9639H61.5599V28.5H51.1575ZM67.9513 28.7469C66.7244 28.7469 65.6621 28.4776 64.7644 27.9389C63.8666 27.4003 63.1709 26.6447 62.6772 25.6722C62.1909 24.6996 61.9478 23.57 61.9478 22.2832C61.9478 20.989 62.1909 19.8556 62.6772 18.8831C63.1709 17.9031 63.8666 17.1437 64.7644 16.6051C65.6621 16.0664 66.7244 15.7971 67.9513 15.7971C69.1782 15.7971 70.2405 16.0664 71.1383 16.6051C72.036 17.1437 72.7317 17.9031 73.2255 18.8831C73.7192 19.8556 73.9661 20.989 73.9661 22.2832C73.9661 23.57 73.7192 24.6996 73.2255 25.6722C72.7317 26.6447 72.036 27.4003 71.1383 27.9389C70.2405 28.4776 69.1782 28.7469 67.9513 28.7469ZM67.9513 26.3679C68.6321 26.3679 69.1932 26.1883 69.6346 25.8293C70.0759 25.4627 70.4051 24.9689 70.6221 24.348C70.8465 23.7271 70.9587 23.0388 70.9587 22.2832C70.9587 21.5127 70.8465 20.8169 70.6221 20.196C70.4051 19.5751 70.0759 19.0851 69.6346 18.726C69.1932 18.3594 68.6321 18.1761 67.9513 18.1761C67.2855 18.1761 66.7282 18.3594 66.2793 18.726C65.8304 19.0851 65.4938 19.5751 65.2694 20.196C65.0524 20.8169 64.9439 21.5127 64.9439 22.2832C64.9439 23.0388 65.0524 23.7271 65.2694 24.348C65.4938 24.9689 65.8304 25.4627 66.2793 25.8293C66.7282 26.1883 67.2855 26.3679 67.9513 26.3679ZM74.9038 28.5V15.9542H77.7653V18.0639H77.9C78.1244 17.3307 78.5171 16.7697 79.0782 16.3807C79.6393 15.9842 80.2789 15.7859 80.9971 15.7859C81.1542 15.7859 81.3338 15.7934 81.5358 15.8083C81.7452 15.8233 81.9173 15.842 82.052 15.8645V18.5801C81.9248 18.5352 81.7265 18.4978 81.4572 18.4679C81.1879 18.4379 80.9298 18.423 80.6829 18.423C80.1368 18.423 79.6505 18.5389 79.2241 18.7709C78.7977 19.0028 78.461 19.3207 78.2142 19.7247C77.9748 20.1287 77.8551 20.6 77.8551 21.1386V28.5H74.9038ZM87.5119 28.7469C86.2551 28.7469 85.1704 28.485 84.2577 27.9614C83.345 27.4302 82.6418 26.6821 82.148 25.717C81.6617 24.752 81.4186 23.6149 81.4186 22.3057C81.4186 21.0114 81.6617 19.8781 82.148 18.9055C82.6343 17.9255 83.3188 17.1624 84.2016 16.6163C85.0843 16.0702 86.1242 15.7971 87.3212 15.7971C88.0917 15.7971 88.8211 15.9206 89.5094 16.1674C90.2051 16.4143 90.8186 16.7959 91.3497 17.312C91.8884 17.8282 92.3111 18.4866 92.6178 19.2871C92.9245 20.08 93.0779 21.0264 93.0779 22.1261V23.0463H82.7989V21.0601H91.6078L90.2276 21.6436C90.2276 20.9329 90.1191 20.3157 89.9021 19.792C89.6852 19.2609 89.3635 18.8457 88.9371 18.5464C88.5107 18.2472 87.9795 18.0976 87.3436 18.0976C86.7077 18.0976 86.1653 18.2472 85.7165 18.5464C85.2676 18.8457 84.9272 19.2496 84.6953 19.7584C84.4634 20.2596 84.3474 20.8207 84.3474 21.4416V22.8219C84.3474 23.5849 84.4784 24.2395 84.7402 24.7856C85.0095 25.3243 85.3836 25.7357 85.8624 26.02C86.3486 26.3043 86.9135 26.4464 87.5568 26.4464C87.9758 26.4464 88.3573 26.3866 88.7014 26.2669C89.053 26.1472 89.3523 25.9677 89.5992 25.7283C89.8535 25.4814 90.048 25.1784 90.1827 24.8193L92.9432 25.1447C92.7637 25.8704 92.4308 26.5063 91.9445 27.0524C91.4657 27.591 90.8485 28.01 90.0929 28.3092C89.3448 28.601 88.4845 28.7469 87.5119 28.7469ZM93.9931 28.5V15.9542H96.8097V18.0976H96.9668C97.2287 17.3794 97.6626 16.8183 98.2685 16.4143C98.8745 16.0029 99.5927 15.7971 100.423 15.7971C101.276 15.7971 101.994 16.0029 102.578 16.4143C103.161 16.8258 103.569 17.3869 103.801 18.0976H103.935C104.22 17.4018 104.691 16.8445 105.349 16.4255C106.008 16.0066 106.793 15.7971 107.706 15.7971C108.858 15.7971 109.797 16.1637 110.523 16.8968C111.256 17.6225 111.622 18.6848 111.622 20.0838V28.5H108.66V20.5327C108.66 19.7621 108.45 19.1973 108.031 18.8382C107.62 18.4716 107.115 18.2883 106.516 18.2883C105.806 18.2883 105.252 18.5128 104.856 18.9616C104.459 19.403 104.261 19.9716 104.261 20.6673V28.5H101.343V20.4204C101.343 19.7696 101.152 19.2534 100.771 18.8719C100.389 18.4828 99.8845 18.2883 99.256 18.2883C98.8296 18.2883 98.4406 18.3968 98.089 18.6138C97.7374 18.8307 97.4568 19.1337 97.2474 19.5227C97.0454 19.9117 96.9444 20.3606 96.9444 20.8693V28.5H93.9931Z" fill="#B5B3B2"/>
<defs>
<clipPath id="clip0_755_6018">
<rect width="41" height="41" fill="white"/>
</clipPath>
</defs>
</svg>
